<svg id="Camada_1" data-name="Camada 1" xmlns="http://www.w3.org/2000/svg" viewBox="0 0 988 197.02"><defs><style>.cls-1{fill:#fff;}</style></defs><title>logo_medicenter</title><path class="cls-1" d="M324.35,63v93.69H298.3V105l-17.67,51.7h-21.8L241,104.59v52.1H215V63h31.49L270,123.86,293,63Z" transform="translate(-6 -4.49)"/><path class="cls-1" d="M410.07,124.66H360.76q.4,6.12,3.39,9.11a10.35,10.35,0,0,0,7.64,3,9.59,9.59,0,0,0,9.31-5.84h27.77a32.48,32.48,0,0,1-6.71,13.75,34.45,34.45,0,0,1-12.56,9.5,39.77,39.77,0,0,1-16.74,3.46A40.48,40.48,0,0,1,353.25,153a33.39,33.39,0,0,1-13.42-13.29Q335,131,335,119.35t4.79-20.27a33,33,0,0,1,13.35-13.22,44.29,44.29,0,0,1,39.27-.14,32.58,32.58,0,0,1,13.29,13,39.63,39.63,0,0,1,4.79,19.87A48.22,48.22,0,0,1,410.07,124.66ZM383.89,112a9.36,9.36,0,0,0-3.19-7.51,13.09,13.09,0,0,0-15.82-.14,12.56,12.56,0,0,0-4,7.65Z" transform="translate(-6 -4.49)"/><path class="cls-1" d="M421,99.14a31.63,31.63,0,0,1,11.5-13.28,29.57,29.57,0,0,1,16.21-4.66,27,27,0,0,1,12.82,3,22.53,22.53,0,0,1,8.84,8.18v-34h26.18v98.34H470.4V146.32a22.06,22.06,0,0,1-8.64,8.24,26.93,26.93,0,0,1-13.15,3.06A29.26,29.26,0,0,1,432.46,153,31.71,31.71,0,0,1,421,139.61a46.26,46.26,0,0,1-4.19-20.26A45.91,45.91,0,0,1,421,99.14Zm45.58,8.91a13.48,13.48,0,0,0-19.33-.07c-2.57,2.71-3.86,6.49-3.86,11.37s1.29,8.57,3.86,11.36a12.6,12.6,0,0,0,9.7,4.18,12.75,12.75,0,0,0,9.63-4.12q3.93-4.11,3.92-11.42T466.61,108.05Z" transform="translate(-6 -4.49)"/><path class="cls-1" d="M513.52,71.44a12.29,12.29,0,0,1-4.18-9.5,12.64,12.64,0,0,1,4.18-9.71q4.18-3.84,11.1-3.85t11,3.85a12.61,12.61,0,0,1,4.19,9.71,12.27,12.27,0,0,1-4.19,9.5q-4.19,3.78-11,3.78T513.52,71.44Zm24,10.69v74.56H511.46V82.13Z" transform="translate(-6 -4.49)"/><path class="cls-1" d="M552.93,99.14a33,33,0,0,1,13.35-13.28,40.48,40.48,0,0,1,19.61-4.66q14.21,0,23.92,7.78t12.49,21.73H594.66q-2.4-7.3-9.31-7.31a9,9,0,0,0-7.77,4q-2.87,4.06-2.86,11.9t2.86,12a9,9,0,0,0,7.77,4.12q7,0,9.31-7.31H622.3q-2.79,13.81-12.49,21.66t-23.92,7.84A40.48,40.48,0,0,1,566.28,153a33,33,0,0,1-13.35-13.29q-4.78-8.64-4.79-20.33A41.09,41.09,0,0,1,552.93,99.14Z" transform="translate(-6 -4.49)"/><path class="cls-1" d="M703.89,124.66h-49.3q.4,6.12,3.39,9.11a10.35,10.35,0,0,0,7.64,3,9.56,9.56,0,0,0,9.3-5.84H702.7A32.48,32.48,0,0,1,696,144.66a34.45,34.45,0,0,1-12.56,9.5,39.78,39.78,0,0,1-16.75,3.46,40.47,40.47,0,0,1-19.6-4.65,33.39,33.39,0,0,1-13.42-13.29q-4.86-8.64-4.85-20.33t4.78-20.27A33,33,0,0,1,647,85.86a44.29,44.29,0,0,1,39.27-.14,32.58,32.58,0,0,1,13.29,13q4.79,8.44,4.78,19.87A46.44,46.44,0,0,1,703.89,124.66ZM677.72,112a9.34,9.34,0,0,0-3.2-7.51,13.08,13.08,0,0,0-15.81-.14,12.62,12.62,0,0,0-4,7.65Z" transform="translate(-6 -4.49)"/><path class="cls-1" d="M784.16,90q7.58,8.58,7.58,23.19v43.46h-26v-40q0-6.39-3.32-10a11.47,11.47,0,0,0-8.91-3.65q-5.85,0-9.16,3.65t-3.33,10v40h-26V82.13h26V92.77a25.74,25.74,0,0,1,9.31-8.18,28,28,0,0,1,13.42-3.12Q776.58,81.47,784.16,90Z" transform="translate(-6 -4.49)"/><path class="cls-1" d="M850.08,134.49v22.2h-11.3q-28.57,0-28.57-28.31V103.8H801V82.13h9.17V64.06h26.18V82.13H850V103.8H836.39v25c0,2,.46,3.5,1.4,4.39s2.5,1.32,4.71,1.32Z" transform="translate(-6 -4.49)"/><path class="cls-1" d="M932.87,124.66h-49.3q.39,6.12,3.38,9.11a10.39,10.39,0,0,0,7.65,3,9.56,9.56,0,0,0,9.3-5.84h27.77A32.48,32.48,0,0,1,925,144.66a34.5,34.5,0,0,1-12.55,9.5,39.84,39.84,0,0,1-16.75,3.46,40.41,40.41,0,0,1-19.6-4.65,33.33,33.33,0,0,1-13.42-13.29q-4.86-8.64-4.86-20.33t4.79-20.27a33.05,33.05,0,0,1,13.35-13.22,44.32,44.32,0,0,1,39.28-.14,32.56,32.56,0,0,1,13.28,13,39.63,39.63,0,0,1,4.79,19.87A46.44,46.44,0,0,1,932.87,124.66ZM906.69,112a9.33,9.33,0,0,0-3.19-7.51,13.08,13.08,0,0,0-15.81-.14,12.62,12.62,0,0,0-4,7.65Z" transform="translate(-6 -4.49)"/><path class="cls-1" d="M980.58,85.19A25.78,25.78,0,0,1,994,81.47v27.78h-7.31q-8.51,0-12.63,3.32T970,124.13v32.56H943.9V82.13H970V95.29A33.82,33.82,0,0,1,980.58,85.19Z" transform="translate(-6 -4.49)"/><path class="cls-1" d="M85.61,6.58,13.79,48A15.6,15.6,0,0,0,6,61.54v82.92A15.6,15.6,0,0,0,13.79,158l71.82,41.46a15.6,15.6,0,0,0,15.58,0L173,158a15.6,15.6,0,0,0,7.79-13.5V61.54A15.6,15.6,0,0,0,173,48L101.19,6.58A15.6,15.6,0,0,0,85.61,6.58Zm50,112.38h-11A15.57,15.57,0,0,0,109,134.54v11A15.59,15.59,0,0,1,93.4,161.14h0a15.58,15.58,0,0,1-15.58-15.58v-11A15.58,15.58,0,0,0,62.24,119h-11a15.58,15.58,0,0,1-15.58-15.58h0A15.58,15.58,0,0,1,51.22,87.8h11A15.58,15.58,0,0,0,77.82,72.22v-11A15.58,15.58,0,0,1,93.4,45.62h0A15.59,15.59,0,0,1,109,61.2v11A15.57,15.57,0,0,0,124.56,87.8h11a15.59,15.59,0,0,1,15.58,15.58h0A15.59,15.59,0,0,1,135.58,119Z" transform="translate(-6 -4.49)"/></svg>